<?xml version="1.0" encoding="utf-8"?>
<!-- Generator: Adobe Illustrator 23.0.6, SVG Export Plug-In . SVG Version: 6.00 Build 0)  -->
<svg version="1.1" id="Layer_1" xmlns="http://www.w3.org/2000/svg" xmlns:xlink="http://www.w3.org/1999/xlink" x="0px" y="0px"
	 viewBox="0 0 32 32" style="enable-background:new 0 0 32 32;" xml:space="preserve">
<style type="text/css">
	.st0{fill:#4C4C4C;}
</style>
<title>5</title>
<path class="st0" d="M11.4,5.3c-3.1,0.4-5.8,1.6-6.7,3C3,10.8,1.3,17.4,1.2,21.7v0.9L1.4,23c1.2,1.7,3.8,3.2,6.8,3.7
	c1.3,0.2,1.2,0.3,2.3-1.2c0.4-0.6,0.8-1.1,0.9-1.1s0.3,0,0.6,0.1c1.3,0.3,3.4,0.5,4.3,0.4c0.1,0,0.5,0,0.8,0c1,0,2.3-0.2,3.2-0.4
	l0.3-0.1l0.2,0.3c0.1,0.2,0.5,0.7,0.8,1.1c0.8,1.1,0.7,1.1,2.1,0.9c3-0.5,5.7-2,6.8-3.7l0.2-0.4v-0.9c-0.1-4.3-1.8-10.8-3.6-13.5
	c-0.9-1.3-3.7-2.6-6.8-3c-0.9-0.1-1-0.1-1.3,1c-0.1,0.5-0.1,0.5-0.8,0.4c-1-0.1-1.5-0.2-2.5-0.2s-1.5,0-2.5,0.2
	c-0.7,0.1-0.6,0.1-0.8-0.4C12.5,5.2,12.4,5.1,11.4,5.3z M11.9,6.5C12,7,12,6.9,11.6,7C9.9,7.4,7.3,8.5,7.1,9
	C6.8,9.5,7.3,9.8,7.8,9.5c2.1-1.3,5.2-2,8.2-2s6,0.8,8.2,2c0.5,0.3,1,0,0.8-0.5c-0.2-0.4-2.8-1.5-4.6-1.9C20,6.9,20,6.9,20.1,6.5
	l0.1-0.3h0.2c2.7,0.3,5.4,1.4,6.1,2.5c1.6,2.5,3.3,8.7,3.4,12.8v0.8l-0.2,0.3c-1,1.4-3,2.5-5.4,3c-0.5,0.1-1.4,0.2-1.4,0.2
	s-1.3-1.7-1.3-1.8c0,0,0.3-0.1,0.6-0.2c1.4-0.5,3-1.3,3.6-1.9c0.5-0.4-0.1-1-0.6-0.6c-3.4,2.6-10.1,3.4-15,1.7
	c-1.2-0.4-3-1.3-3.3-1.7c-0.2-0.3-0.8-0.1-0.8,0.3c0,0.5,1.9,1.6,3.7,2.2c0.3,0.1,0.6,0.2,0.6,0.2s-1.2,1.7-1.3,1.8
	c-0.1,0-0.9-0.1-1.3-0.2c-2.5-0.5-4.6-1.7-5.6-3.1L2,22.3v-0.8C2.2,17.2,4.2,9.9,5.8,8.4c0.9-0.9,3.7-1.9,5.9-2.2
	C11.7,6.2,11.8,6.3,11.9,6.5L11.9,6.5z M11,14.3c-1.8,0.4-2.7,2.6-1.8,4.3c1,2,3.7,2,4.7-0.1C14.9,16.3,13.2,13.8,11,14.3z M20,14.3
	c-2,0.4-2.8,3.2-1.5,4.8c1.3,1.5,3.5,1.2,4.4-0.6C23.9,16.3,22.2,13.8,20,14.3z M12.2,15.3c1.4,0.7,1.4,3,0,3.7
	c-1.8,0.9-3.4-1.5-2.1-3.2C10.6,15.2,11.5,14.9,12.2,15.3L12.2,15.3z M21.2,15.3c1.4,0.7,1.4,3,0,3.7c-1.8,0.9-3.4-1.5-2.1-3.2
	C19.6,15.2,20.5,14.9,21.2,15.3z"/>
</svg>
