<?xml version="1.0" encoding="utf-8"?>
<!-- Generator: Adobe Illustrator 23.0.6, SVG Export Plug-In . SVG Version: 6.00 Build 0)  -->
<svg version="1.1" id="Layer_1" xmlns="http://www.w3.org/2000/svg" xmlns:xlink="http://www.w3.org/1999/xlink" x="0px" y="0px"
	 viewBox="0 0 32 32" style="enable-background:new 0 0 32 32;" xml:space="preserve">
<style type="text/css">
	.st0{fill:#4C4C4C;}
</style>
<title>2</title>
<path class="st0" d="M2.5,6.3C2.2,6.4,1.8,6.7,1.7,7.1c-0.1,0.2-0.1,17.5,0,17.7c0.1,0.4,0.3,0.6,0.6,0.8l0.2,0.1l27.1,0l0.1-0.1
	c0.3-0.1,0.5-0.3,0.6-0.7c0.1-0.2,0-17.7,0-17.9c-0.1-0.3-0.3-0.5-0.6-0.7C29.6,6.3,2.8,6.3,2.5,6.3L2.5,6.3z M28.4,7.4
	C28.4,7.4,28.4,7.4,28.4,7.4c0,0-0.2,0.2-0.4,0.4c-0.2,0.2-0.5,0.5-0.7,0.7c-0.4,0.4-2,1.9-2.5,2.3c-0.5,0.4-1,0.9-1.2,1.1
	c-0.1,0.1-0.4,0.4-0.5,0.5s-0.4,0.4-0.5,0.5c-0.2,0.2-0.6,0.6-1.2,1.1c-0.1,0.1-0.4,0.3-0.5,0.5s-0.6,0.5-0.9,0.8s-0.6,0.6-0.7,0.7
	s-0.4,0.3-0.6,0.5s-0.5,0.4-0.6,0.5c-0.1,0.1-0.3,0.3-0.6,0.5s-0.5,0.4-0.6,0.6s-0.3,0.3-0.3,0.3c-0.3,0.3-0.7,0.3-0.9,0.1
	c-0.1-0.1-1.4-1.3-1.6-1.5c-0.1-0.1-0.2-0.2-0.3-0.3s-0.3-0.3-0.6-0.5c-0.2-0.2-0.5-0.4-0.6-0.5s-0.4-0.4-0.7-0.7
	c-0.3-0.3-0.9-0.9-1.5-1.4s-1-1-1.1-1.1C8.6,12,8,11.5,7.6,11c-0.2-0.2-0.4-0.4-0.6-0.5S6.5,10,6.2,9.7s-1-0.9-1.5-1.4
	c-0.5-0.5-0.9-0.9-1-0.9L3.7,7.4H16C24.2,7.4,28.4,7.4,28.4,7.4L28.4,7.4z M3.3,8.5c0.6,0.6,1.6,1.5,2.9,2.7C7,12,7.7,12.7,7.9,12.9
	C8,13,8.3,13.3,8.5,13.4c0.2,0.2,0.4,0.4,0.6,0.5c0.7,0.7,0.9,0.9,1.5,1.4c0.3,0.3,0.7,0.7,0.9,0.8l0.3,0.3l-0.1,0.1
	c-0.1,0.1-0.3,0.3-0.8,0.7c-0.4,0.4-0.7,0.6-0.8,0.7c-0.1,0.1-0.3,0.3-0.6,0.5s-0.4,0.4-0.5,0.4c0,0-0.1,0.1-0.2,0.1
	s-0.2,0.1-0.3,0.2c-0.1,0.1-0.4,0.3-0.6,0.5s-0.4,0.4-0.5,0.4c-0.5,0.5-0.9,0.8-1.2,1c-0.2,0.2-0.5,0.4-0.7,0.6s-0.7,0.6-1.1,0.9
	s-0.7,0.6-0.7,0.6s-0.1,0.1-0.2,0.2s-0.2,0.2-0.3,0.2S3,23.9,2.9,24L2.8,24V8.1l0.1,0.1C3,8.3,3.2,8.4,3.3,8.5L3.3,8.5z M29.3,16.1
	c0,4.4,0,8,0,8s-0.2-0.2-0.4-0.4c-0.2-0.2-0.5-0.4-0.6-0.5c-0.2-0.1-1.2-1-2.7-2.3c-0.3-0.3-0.6-0.6-0.7-0.6s-0.3-0.2-0.4-0.4
	S24,19.6,24,19.5c-0.2-0.2-0.3-0.2-0.6-0.5c-0.1-0.1-0.2-0.2-0.2-0.2s-0.1-0.1-0.2-0.2s-0.2-0.2-0.2-0.2c0,0-0.7-0.6-0.8-0.7
	c0,0-0.1-0.1-0.2-0.2s-0.2-0.2-0.3-0.3S21,17,20.8,16.8l-0.4-0.4l0.2-0.2c0.1-0.1,0.6-0.6,1.1-1s1-0.9,1.1-1s0.4-0.3,0.6-0.5
	c0.9-0.9,1.4-1.3,1.7-1.6c0.3-0.2,1.2-1.2,1.7-1.6c0.1-0.1,0.5-0.5,0.8-0.8s0.6-0.6,0.7-0.7s0.3-0.3,0.5-0.5
	c0.2-0.2,0.4-0.3,0.4-0.3S29.3,11.7,29.3,16.1L29.3,16.1z M13.1,17.7c0.1,0.1,0.4,0.3,0.5,0.5c1.4,1.3,1.4,1.3,1.7,1.5
	c0.1,0.1,0.2,0.1,0.5,0.2c0.5,0.1,1.1-0.1,1.5-0.5c0.1-0.1,0.7-0.6,1.2-1.2s1-1,1.1-1s0.1,0.1,0.3,0.2s0.4,0.3,0.5,0.4
	c0.2,0.1,0.4,0.3,0.5,0.4s0.3,0.3,0.5,0.4s0.4,0.3,0.4,0.4s0.2,0.2,0.2,0.2c0.1,0.1,0.6,0.5,0.8,0.7c0.1,0.1,0.2,0.2,0.3,0.3
	s0.2,0.2,0.2,0.2c0,0,0.1,0.1,0.2,0.2c0.3,0.3,0.4,0.3,0.5,0.4c0.1,0.1,0.5,0.4,1,0.8s1.4,1.2,2,1.7l1.1,1l-6.1,0
	c-3.3,0-8.8,0-12.2,0l-6.1,0l0.4-0.3c0.2-0.2,0.5-0.4,0.7-0.6s0.3-0.3,0.4-0.3s0.4-0.3,0.8-0.7s0.7-0.6,0.7-0.6S6.9,22,7,21.9
	c0.1-0.1,0.2-0.2,0.2-0.2s0.1-0.1,0.2-0.2s0.2-0.2,0.2-0.2c0,0,0.8-0.7,0.9-0.8c0,0,0.1-0.1,0.2-0.2s0.3-0.3,0.5-0.4
	c0.2-0.1,0.3-0.3,0.3-0.3s0.1-0.1,0.2-0.2s0.3-0.2,0.4-0.3s0.3-0.2,0.4-0.4s0.4-0.3,0.5-0.4c0.2-0.2,0.9-0.8,1.2-1l0.2-0.2l0.2,0.2
	C12.8,17.5,12.9,17.6,13.1,17.7L13.1,17.7z"/>
</svg>
