<?xml version="1.0" encoding="utf-8"?>
<!-- Generator: Adobe Illustrator 23.0.6, SVG Export Plug-In . SVG Version: 6.00 Build 0)  -->
<svg version="1.1" id="Layer_1" xmlns="http://www.w3.org/2000/svg" xmlns:xlink="http://www.w3.org/1999/xlink" x="0px" y="0px"
	 viewBox="0 0 32 32" style="enable-background:new 0 0 32 32;" xml:space="preserve">
<style type="text/css">
	.st0{fill:#4C4C4C;}
</style>
<title>3</title>
<path class="st0" d="M3.6,2.8C3,4.3,2.7,5.7,2.6,7.4c-0.1,0.7-0.1,2.3,0,2.7c0,0.1,0,0.1-0.2,0.3c-2,2.2-2.7,4.7-2.3,8.3
	c0.6,6.6,4.3,10.2,11.1,10.9c0.5,0.1,9,0.1,9.5,0c6.7-0.6,10.5-4.2,11.2-10.6c0.4-3.7-0.3-6.3-2.3-8.5l-0.2-0.3l0-0.3
	c0-0.4,0.1-1.8,0-2.3c-0.1-1.7-0.5-3.5-1.1-4.9l-0.1-0.2l-0.1,0c-1.5,0.1-5.1,1.7-7.5,3.4l-0.3,0.2L20.2,6c-2-0.5-6.5-0.5-8.4,0
	l-0.1,0l-0.5-0.3C8.7,4.1,6,2.9,4.1,2.5C4,2.5,3.8,2.5,3.8,2.5C3.7,2.4,3.7,2.5,3.6,2.8L3.6,2.8z M5.5,4.4C7.2,5,9,5.9,10.9,7.3
	c0.2,0.2,0.5,0.3,0.5,0.3s0.2,0,0.4-0.1c2.1-0.6,6.3-0.6,8.4,0c0.2,0.1,0.4,0.1,0.4,0.1s0.3-0.2,0.6-0.4c2.1-1.4,4-2.4,5.9-3
	l0.3-0.1l0,0.1c0.6,1.9,0.8,4.4,0.5,5.9l-0.1,0.4l0.1,0.1c0,0,0.2,0.2,0.4,0.5c1.9,2.1,2.5,4.1,2.1,7.5c-0.2,1.9-0.7,3.5-1.4,4.9
	c-0.1,0.2-0.5,0.8-0.5,0.8c0,0,0-0.1,0.1-0.3c0.5-1.4,0.6-3.3,0.3-4.6c-0.4-2.1-2-4-3.8-4.7c-0.9-0.4-1.9-0.5-3.3-0.5
	c-0.8,0-1.1,0-2.5,0.1c-1.6,0.1-1.8,0.1-2.6,0.1c-1.1,0-2,0-4-0.1c-3.4-0.2-4.7-0.1-6.1,0.5c-1.7,0.7-3.1,2.4-3.6,4.4
	c-0.4,1.4-0.2,3.4,0.3,4.9c0.1,0.3,0.1,0.3-0.1-0.1c-1.2-1.7-1.7-3.8-1.8-6.5C1.3,14.7,2,12.9,3.8,11c0.3-0.3,0.4-0.4,0.4-0.4
	C3.8,9.4,3.9,7.1,4.3,5.2c0.1-0.3,0.3-1,0.3-1C4.6,4.1,5,4.2,5.5,4.4L5.5,4.4z M11.4,15.6c0.2,0,0.9,0.1,1.5,0.1
	c2.8,0.2,3.5,0.2,6.5,0c1.4-0.1,1.6-0.1,2.4-0.1c2.4,0,3.7,0.5,4.8,2c1,1.4,1.3,3.1,0.9,5.2c-0.7,3.7-3.6,5.2-10,5.4
	c-9.4,0.3-13-1.6-13.2-7c-0.1-1.5,0.4-2.9,1.4-4C6.9,15.8,8.4,15.4,11.4,15.6L11.4,15.6z M10.2,18.3c-1.7,0.3-2.6,2.9-1.6,4.9
	c1.2,2.5,4,1.4,4.1-1.6C12.8,19.7,11.6,18,10.2,18.3z M21.2,18.3c-2,0.4-2.7,3.9-1.1,5.6c1.5,1.5,3.6,0.2,3.6-2.4
	C23.8,19.6,22.6,18,21.2,18.3z M10.6,19.7c0.9,0.4,1,2.8,0.1,3.4c-0.5,0.3-1.1-0.7-1-1.8C9.7,20.3,10.2,19.5,10.6,19.7z M21.7,19.8
	c0.9,0.5,0.9,2.7,0,3.3c-0.6,0.4-1.3-1-1-2.2C20.9,20.1,21.4,19.5,21.7,19.8L21.7,19.8z"/>
</svg>
