<?xml version="1.0" encoding="utf-8"?>
<!-- Generator: Adobe Illustrator 23.0.6, SVG Export Plug-In . SVG Version: 6.00 Build 0)  -->
<svg version="1.1" id="Layer_1" xmlns="http://www.w3.org/2000/svg" xmlns:xlink="http://www.w3.org/1999/xlink" x="0px" y="0px"
	 viewBox="0 0 32 32" style="enable-background:new 0 0 32 32;" xml:space="preserve">
<style type="text/css">
	.st0{fill:#4C4C4C;}
</style>
<title>1</title>
<path class="st0" d="M15.1,0.9c0,0-0.3,0-0.6,0.1c-2.6,0.1-5,1.3-6.8,3.2C7.5,4.3,7.4,4.4,7.4,4.4s0,0,0,0c0,0-0.1,0.2-0.3,0.5
	C6.5,5.7,6,6.6,5.7,7.4C5.6,7.7,5.5,7.9,5.4,8c-0.6,1.6-0.7,4.3-0.1,6.7c0.4,1.5,1.3,3.9,2.3,5.6c0.1,0.1,0.2,0.4,0.3,0.6
	c0.1,0.2,0.2,0.4,0.2,0.4c0,0,0.5,0.8,0.5,0.9c0,0,0.1,0.1,0.1,0.1s0.3,0.4,0.6,0.9c0.3,0.4,0.6,0.9,0.7,1c0.3,0.4,0.8,1.1,0.9,1.3
	c0.1,0.1,0.3,0.4,0.5,0.7c0.4,0.6,0.8,1.1,1,1.3c0,0.1,0.3,0.3,0.5,0.6c0.5,0.6,0.6,0.8,1.1,1.4c0.2,0.3,0.5,0.7,0.7,0.9
	c0.7,0.8,0.7,0.8,2.4-1.3c2-2.5,2.4-3.1,2.5-3.2c0-0.1,0.1-0.1,0.1-0.1s0.1-0.1,0.2-0.3s0.2-0.2,0.2-0.2s0,0,0,0
	c0-0.1,0.1-0.3,0.3-0.5c0.1-0.1,0.1-0.2,0.2-0.2s0.1-0.2,0.3-0.4c0.1-0.2,0.2-0.3,0.2-0.4c0.1-0.2,0.3-0.4,0.3-0.4c0,0,0,0,0,0
	c0,0,0-0.1,0.1-0.2c0.1-0.1,0.1-0.1,0.1-0.2s0.1-0.2,0.3-0.5c1.9-3,3.2-6,3.8-8.6C27,7.9,23.6,2.4,18.1,1.2
	C17.3,1,15.2,0.8,15.1,0.9L15.1,0.9z M17.4,2.1c1.5,0.3,3.2,1,3.9,1.7c0,0,0.1,0.1,0.2,0.2c0.9,0.7,2.2,2.4,2.7,3.7
	c0.1,0.2,0.1,0.4,0.2,0.5c0.5,1.1,0.6,3.2,0.4,4.7c-0.2,1.2-0.6,2.8-1,3.7c0,0.1-0.1,0.2-0.1,0.2s0,0.1-0.1,0.2
	c-0.7,1.6-1.1,2.4-1.8,3.5c-0.1,0.2-0.2,0.4-0.2,0.4s0,0,0,0.1c0,0.1-0.6,1.1-1.1,1.8c-0.5,0.7-0.6,0.9-1.2,1.8
	c-0.4,0.6-0.6,0.8-0.8,1c0,0-0.1,0.2-0.3,0.3c-0.5,0.6-2.8,3.5-2.8,3.5c0,0-0.2-0.2-0.4-0.4s-0.3-0.4-0.4-0.4c0,0-1.5-1.9-2-2.5
	c-0.2-0.2-0.4-0.5-0.4-0.5C12,25,11.2,24,10.6,23.1c-0.2-0.3-0.4-0.6-0.4-0.6c-0.1,0-0.4-0.6-0.4-0.6c0,0,0,0-0.1-0.1
	c-0.3-0.4-1.8-3-2.3-4.2c-0.1-0.2-0.2-0.4-0.2-0.5c-0.1-0.3-0.6-1.5-0.7-1.8c0-0.1-0.1-0.4-0.2-0.6C4.8,8.7,7.9,3.2,13.6,2.1
	C14.4,1.9,16.5,2,17.4,2.1z M15,4.9c-0.1,0-0.3,0-0.5,0.1c-1.7,0.3-3.4,1.4-4.2,2.8C10.2,7.9,10.2,8,10.1,8s0,0,0,0.1
	c0,0-0.1,0.2-0.2,0.4c-0.7,1.5-0.8,3.4-0.2,4.9c0.1,0.3,0.4,0.9,0.4,0.9c0,0,0.1,0.1,0.1,0.2c0.2,0.4,0.9,1.2,1.3,1.5
	c0.1,0.1,0.2,0.2,0.3,0.2c1.5,1.4,4.7,1.5,6.7,0.4c1.3-0.7,2.1-1.6,2.8-3.3c0.2-0.6,0.4-1.8,0.3-2.6c-0.1-1.2-0.5-2.1-1.2-3.1
	C19.2,5.8,16.7,4.6,15,4.9z M16.7,6.2c5,1.3,5.1,8.4,0.1,9.8c-5,1.5-8.7-4.9-4.9-8.6c0.3-0.3,0.9-0.8,1-0.8c0,0,0.1,0,0.1-0.1
	C13.7,6.1,15.6,5.9,16.7,6.2z"/>
</svg>
